<svg width="69" height="32" viewBox="0 0 69 32" fill="none" xmlns="http://www.w3.org/2000/svg">
<path fill-rule="evenodd" clip-rule="evenodd" d="M53.5 31C61.7843 31 68.5 24.2843 68.5 16C68.5 7.71573 61.7843 1 53.5 1C45.2157 1 38.5 7.71573 38.5 16C38.5 24.2843 45.2157 31 53.5 31Z" fill="#1E2E36"/>
<path d="M57.383 15.8696C57.383 16.08 57.3064 16.2903 57.1534 16.4507L52.3386 21.4983C52.0324 21.8194 51.5358 21.8194 51.2296 21.4983C50.9235 21.1774 50.9235 20.6569 51.2296 20.3357L55.49 15.8696L51.2298 11.4034C50.9236 11.0823 50.9236 10.5619 51.2298 10.2409C51.5359 9.91969 52.0325 9.91969 52.3388 10.2409L57.1536 15.2884C57.3065 15.4489 57.383 15.6593 57.383 15.8696Z" fill="white"/>
<path fill-rule="evenodd" clip-rule="evenodd" d="M15.5 31C23.7843 31 30.5 24.2843 30.5 16C30.5 7.71573 23.7843 1 15.5 1C7.21573 1 0.5 7.71573 0.5 16C0.5 24.2843 7.21573 31 15.5 31Z" stroke="#1E2E36"/>
<path d="M11.6808 15.8695C11.6808 15.6592 11.7591 15.4488 11.9154 15.2884L16.8348 10.2408C17.1478 9.91973 17.6552 9.91973 17.968 10.2408C18.2808 10.5618 18.2808 11.0823 17.968 11.4034L13.615 15.8695L17.9678 20.3357C18.2806 20.6568 18.2806 21.1773 17.9678 21.4982C17.655 21.8194 17.1476 21.8194 16.8347 21.4982L11.9152 16.4507C11.759 16.2902 11.6808 16.0799 11.6808 15.8695Z" fill="#1E2E36"/>
</svg>
